<mxfile host="app.diagrams.net" modified="2023-08-09T06:59:37.361Z" agent="Mozilla/5.0 (Windows NT 10.0; Win64; x64) AppleWebKit/537.36 (KHTML, like Gecko) Chrome/115.0.0.0 Safari/537.36" etag="Vr7wAMbLdzNXVjKQgYH2" version="21.6.6" type="device">
  <diagram name="PÃ¡gina-1" id="Xa78uboNvgGHjvVbnvwz">
    <mxGraphModel dx="838" dy="497" grid="1" gridSize="10" guides="1" tooltips="1" connect="1" arrows="1" fold="1" page="1" pageScale="1" pageWidth="827" pageHeight="1169" math="0" shadow="0">
      <root>
        <mxCell id="0" />
        <mxCell id="1" parent="0" />
        <mxCell id="eYWvCYiTG9ZviLroBCJb-48" style="edgeStyle=orthogonalEdgeStyle;rounded=0;orthogonalLoop=1;jettySize=auto;html=1;entryX=0.5;entryY=0;entryDx=0;entryDy=0;strokeWidth=3;" edge="1" parent="1" source="eYWvCYiTG9ZviLroBCJb-1" target="eYWvCYiTG9ZviLroBCJb-35">
          <mxGeometry relative="1" as="geometry" />
        </mxCell>
        <mxCell id="eYWvCYiTG9ZviLroBCJb-52" value="&lt;span style=&quot;font-size: 20px;&quot;&gt;Verdadero&lt;/span&gt;" style="edgeLabel;html=1;align=center;verticalAlign=middle;resizable=0;points=[];" vertex="1" connectable="0" parent="eYWvCYiTG9ZviLroBCJb-48">
          <mxGeometry x="-0.1222" relative="1" as="geometry">
            <mxPoint as="offset" />
          </mxGeometry>
        </mxCell>
        <mxCell id="eYWvCYiTG9ZviLroBCJb-49" style="edgeStyle=orthogonalEdgeStyle;rounded=0;orthogonalLoop=1;jettySize=auto;html=1;strokeWidth=3;" edge="1" parent="1" source="eYWvCYiTG9ZviLroBCJb-1">
          <mxGeometry relative="1" as="geometry">
            <mxPoint x="270" y="430" as="targetPoint" />
            <Array as="points">
              <mxPoint x="500" y="165" />
              <mxPoint x="500" y="430" />
            </Array>
          </mxGeometry>
        </mxCell>
        <mxCell id="eYWvCYiTG9ZviLroBCJb-53" value="&lt;font style=&quot;font-size: 20px;&quot;&gt;Falso&lt;/font&gt;" style="edgeLabel;html=1;align=center;verticalAlign=middle;resizable=0;points=[];" vertex="1" connectable="0" parent="eYWvCYiTG9ZviLroBCJb-49">
          <mxGeometry x="-0.3905" y="3" relative="1" as="geometry">
            <mxPoint as="offset" />
          </mxGeometry>
        </mxCell>
        <mxCell id="eYWvCYiTG9ZviLroBCJb-1" value="Desde; Hasta; Incremento" style="rhombus;whiteSpace=wrap;html=1;fillColor=#60a917;fontColor=#ffffff;strokeColor=#2D7600;strokeWidth=3;fontSize=24;" vertex="1" parent="1">
          <mxGeometry x="90" y="100" width="360" height="130" as="geometry" />
        </mxCell>
        <mxCell id="eYWvCYiTG9ZviLroBCJb-5" value="" style="endArrow=classic;html=1;rounded=0;fontSize=11;strokeWidth=3;entryX=0.5;entryY=0;entryDx=0;entryDy=0;" edge="1" parent="1" target="eYWvCYiTG9ZviLroBCJb-1">
          <mxGeometry width="50" height="50" relative="1" as="geometry">
            <mxPoint x="270" y="20" as="sourcePoint" />
            <mxPoint x="440" y="250" as="targetPoint" />
          </mxGeometry>
        </mxCell>
        <mxCell id="eYWvCYiTG9ZviLroBCJb-47" style="edgeStyle=orthogonalEdgeStyle;rounded=0;orthogonalLoop=1;jettySize=auto;html=1;entryX=0;entryY=0.5;entryDx=0;entryDy=0;strokeWidth=3;" edge="1" parent="1" source="eYWvCYiTG9ZviLroBCJb-35" target="eYWvCYiTG9ZviLroBCJb-1">
          <mxGeometry relative="1" as="geometry">
            <Array as="points">
              <mxPoint x="60" y="320" />
              <mxPoint x="60" y="165" />
            </Array>
          </mxGeometry>
        </mxCell>
        <mxCell id="eYWvCYiTG9ZviLroBCJb-54" value="&lt;font style=&quot;font-size: 20px;&quot;&gt;Incrementa&amp;nbsp;&lt;br&gt;contador&lt;/font&gt;" style="edgeLabel;html=1;align=center;verticalAlign=middle;resizable=0;points=[];" vertex="1" connectable="0" parent="eYWvCYiTG9ZviLroBCJb-47">
          <mxGeometry x="0.2808" y="1" relative="1" as="geometry">
            <mxPoint as="offset" />
          </mxGeometry>
        </mxCell>
        <mxCell id="eYWvCYiTG9ZviLroBCJb-51" style="edgeStyle=orthogonalEdgeStyle;rounded=0;orthogonalLoop=1;jettySize=auto;html=1;strokeWidth=3;" edge="1" parent="1" source="eYWvCYiTG9ZviLroBCJb-35" target="eYWvCYiTG9ZviLroBCJb-50">
          <mxGeometry relative="1" as="geometry" />
        </mxCell>
        <mxCell id="eYWvCYiTG9ZviLroBCJb-35" value="Proceso (instrucciones)" style="rounded=0;whiteSpace=wrap;html=1;fillColor=#fa6800;fontColor=#ffffff;strokeColor=#C73500;fontSize=25;strokeWidth=3;" vertex="1" parent="1">
          <mxGeometry x="170" y="290" width="200" height="60" as="geometry" />
        </mxCell>
        <mxCell id="eYWvCYiTG9ZviLroBCJb-50" value="Bloque instrucciones" style="rounded=0;whiteSpace=wrap;html=1;fillColor=#fa6800;fontColor=#ffffff;strokeColor=#C73500;fontSize=25;strokeWidth=3;" vertex="1" parent="1">
          <mxGeometry x="170" y="480" width="200" height="60" as="geometry" />
        </mxCell>
      </root>
    </mxGraphModel>
  </diagram>
</mxfile>
